<svg width="1200" height="242" viewBox="0 0 1200 242" fill="none" xmlns="http://www.w3.org/2000/svg">
<rect width="1200" height="242" rx="30" fill="#6B98BF"/>
<mask id="mask0_1_10" style="mask-type:alpha" maskUnits="userSpaceOnUse" x="0" y="0" width="1200" height="242">
<rect width="1200" height="242" rx="30" fill="#B4E2E4"/>
</mask>
<g mask="url(#mask0_1_10)">
<path fill-rule="evenodd" clip-rule="evenodd" d="M27.8402 61.4601C58.1286 59.649 90.4692 62.0735 112.78 89.3522C135.766 117.456 143.616 160.719 142.963 202.216C142.324 242.791 130.444 281.169 109.299 310.455C87.681 340.395 58.9794 358.557 27.8402 361.658C-6.02039 365.029 -47.0789 364.704 -66.8171 327.992C-85.9688 292.37 -61.1239 245.781 -57.8824 202.216C-55.2215 166.455 -66.7967 127.007 -49.7841 99.0728C-31.7734 69.4993 -0.762072 63.1704 27.8402 61.4601Z" fill="#D9B589"/>
<path fill-rule="evenodd" clip-rule="evenodd" d="M547.8 -47.6017C580.013 -47.0459 615.429 -57.1482 640.243 -38.6094C666.282 -19.1554 674.314 14.3915 671.451 44.7805C668.799 72.9251 646.501 93.9446 625.76 115.106C602.913 138.417 582.243 172.632 547.8 170.94C513.582 169.258 503.978 127.888 477.895 107.839C446.951 84.0531 389.999 81.0068 383.673 44.7805C377.324 8.42875 417.14 -22.3805 451.75 -41.8617C480.049 -57.7903 514.45 -48.1772 547.8 -47.6017Z" fill="#DAF1F2" fill-opacity="0.35"/>
<ellipse cx="1141" cy="10" rx="66" ry="68" fill="#D98C4A"/>
</g>
</svg>
