<svg width="28" height="30" viewBox="0 0 28 30" fill="none" xmlns="http://www.w3.org/2000/svg">
<path fill-rule="evenodd" clip-rule="evenodd" d="M0 2.46831C0 1.1051 0.89543 0 2 0H26C27.1046 0 28 1.1051 28 2.46831C28 3.83152 27.1046 4.93662 26 4.93662H2C0.89543 4.93662 0 3.83152 0 2.46831Z" fill="#D98C4A"/>
<path fill-rule="evenodd" clip-rule="evenodd" d="M0 14.8099C0 13.4466 0.89543 12.3415 2 12.3415H26C27.1046 12.3415 28 13.4466 28 14.8099C28 16.1731 27.1046 17.2782 26 17.2782H2C0.89543 17.2782 0 16.1731 0 14.8099Z" fill="#D98C4A"/>
<path fill-rule="evenodd" clip-rule="evenodd" d="M0 27.1514C0 25.7882 0.89543 24.6831 2 24.6831H26C27.1046 24.6831 28 25.7882 28 27.1514C28 28.5146 27.1046 29.6197 26 29.6197H2C0.89543 29.6197 0 28.5146 0 27.1514Z" fill="#D98C4A"/>
</svg>
