<svg width="80" height="80" viewBox="0 0 80 80" fill="none" xmlns="http://www.w3.org/2000/svg">
<circle cx="40" cy="40" r="40" fill="#DAF1F2" fill-opacity="0.2"/>
<path fill-rule="evenodd" clip-rule="evenodd" d="M40 20.8C34.6981 20.8 30.4 25.0981 30.4 30.4V32.8H28C26.7771 32.8 25.7498 33.7195 25.6147 34.935L23.2147 56.535C23.1393 57.2134 23.3564 57.8919 23.8117 58.4006C24.267 58.9093 24.9174 59.2 25.6 59.2H54.4C55.0827 59.2 55.733 58.9093 56.1883 58.4006C56.6436 57.8919 56.8607 57.2134 56.7853 56.535L54.3853 34.935C54.2503 33.7195 53.2229 32.8 52 32.8H49.6V30.4C49.6 25.0981 45.3019 20.8 40 20.8ZM44.8 32.8V30.4C44.8 27.749 42.651 25.6 40 25.6C37.349 25.6 35.2 27.749 35.2 30.4V32.8H44.8ZM30.4 40C30.4 38.6745 31.4745 37.6 32.8 37.6C34.1255 37.6 35.2 38.6745 35.2 40C35.2 41.3255 34.1255 42.4 32.8 42.4C31.4745 42.4 30.4 41.3255 30.4 40ZM47.2 37.6C45.8745 37.6 44.8 38.6745 44.8 40C44.8 41.3255 45.8745 42.4 47.2 42.4C48.5255 42.4 49.6 41.3255 49.6 40C49.6 38.6745 48.5255 37.6 47.2 37.6Z" fill="#D98C4A"/>
</svg>
