<svg width="922" height="579" viewBox="0 0 922 579" fill="none" xmlns="http://www.w3.org/2000/svg">
<path d="M921.167 94.0056C921.167 94.0056 822.315 140.751 754.167 147.506C722.106 150.684 703.669 151.23 671.667 147.506C609.708 140.295 578.392 118.829 521.167 94.0056C467.65 70.791 388.167 26.0056 388.167 26.0056C388.167 26.0056 321.205 1.57633 276.667 2.00559C234.035 2.41648 170.167 26.0056 170.167 26.0056C170.167 26.0056 118.73 45.4851 92.1667 67.5056C62.011 92.5039 49.6595 112.713 31.6667 147.506C15.2158 179.317 8.48946 199.169 2.66673 234.506C-3.33341 270.919 2.66673 329.006 2.66673 329.006C2.66673 329.006 11.5833 391.949 31.6667 426.006C49.3545 456 63.0832 472.357 92.1667 491.506C119.31 509.377 170.167 520.506 170.167 520.506H217.667M217.667 520.506C217.667 520.506 230.951 517.74 234.667 516.006C242.167 512.506 243.167 512.506 249.667 506.006C251.186 504.487 250.702 503.888 249.667 502.006C247.785 498.584 243.497 501.246 239.667 502.006C234.783 502.973 232.123 505.484 228.167 508.506C222.611 512.75 217.667 520.506 217.667 520.506ZM217.667 520.506L204.167 537.006C204.167 537.006 200.107 548.365 202.167 553.006C205.047 559.495 217.667 565.006 217.667 565.006L234.667 572.006L252.667 575.506L271.667 578.506L292.167 575.506C292.167 575.506 305.32 571.968 312.667 568.506C319.564 565.255 327.667 559.506 327.667 559.506C327.667 559.506 336.167 551.506 336.167 548.506C336.167 545.506 336.167 545.506 336.167 545.506L309.167 548.506H279.667L266.167 547.006L252.667 545.506C252.667 545.506 237.667 542.506 232.667 537.006C231.167 531.506 258.667 529.506 258.667 529.506C258.667 529.506 268.231 525.637 271.667 520.506C276.881 512.717 271.667 496.506 271.667 496.506V473.506L265.667 448.506C265.667 448.506 263.018 434.384 265.667 426.006C267.194 421.176 268.153 418.155 271.667 414.506C276.15 409.849 286.667 407.506 286.667 407.506L312.667 400.006L332.167 388.506L336.167 377.506L332.167 364.006L303.167 349.006L279.667 339.506L265.667 330.506L271.667 311.506L279.667 300.506V282.506L268.667 268.006L258.667 262.506C258.667 262.506 250.6 261.307 245.667 262.506C241 263.64 238.287 264.849 234.667 268.006C231.399 270.855 228.167 277.006 228.167 277.006V282.506L234.667 294.006L239.667 297.006V300.506V304.506H245.667L251.667 307.006L252.667 311.506L258.667 317.506V320.006M178.417 382.006H183.167H191.167L209.667 364.006L251.667 330.506L258.667 322.506V320.006M178.417 382.006H173.667L163.667 388.506V400.006H170.167L173.667 394.506H183.167V388.506L178.417 382.006ZM173.667 377.506V372.006L187.667 364.006L197.167 357.006L206.667 349.006L217.667 339.506L228.167 327.006L232.667 320.006H245.667H258.667M274.667 320.006L284.167 315.006L292.167 304.506L303.167 294.006H319.167L336.167 300.506L362.667 307.006L375.667 311.506L397.167 315.006L413.667 320.006L425.167 330.506L434.667 335.506H453.167H460.167V339.506V345.506L449.667 349.006V357.006L439.667 353.506L427.667 343.506L397.167 335.506L375.667 330.506H359.667M359.667 330.506H343.667L319.167 327.006L309.167 315.006V304.506L322.667 300.506L338.667 310.506L359.667 330.506ZM359.667 330.506L386.167 357.006L397.167 377.506V394.506L388.667 402.006L368.167 414.506L336.167 418.006C336.167 418.006 319.386 418.974 309.167 422.006C304.784 423.305 300.437 422.038 298.167 426.006C296.421 429.056 295.267 431.492 295.167 435.006C294.871 445.416 295.167 461.506 295.167 461.506C295.167 461.506 295.797 471.289 295.167 477.506C293.994 489.061 286.667 506.006 286.667 506.006C286.667 506.006 282.616 521.271 286.667 529.506C288.27 532.765 288.794 535.658 292.167 537.006C296.411 538.702 301.056 537.06 303.167 533.006C304.61 530.235 303.727 528.079 303.167 525.006C302.352 520.538 298.167 514.506 298.167 514.506L279.667 500.506L268.667 491.506C268.667 491.506 261.889 480.873 258.667 473.506C252.479 459.359 249.667 435.006 249.667 435.006C249.667 435.006 245.051 427.282 245.667 422.006C246.548 414.452 258.667 407.506 258.667 407.506L279.667 400.006L303.167 388.506L312.667 382.006L319.167 372.006" stroke="#D5EDF2" stroke-width="3"/>
</svg>
