<svg width="40" height="40" viewBox="0 0 40 40" fill="none" xmlns="http://www.w3.org/2000/svg">
<path d="M10 6C7.79086 6 6 7.79086 6 10V14C6 16.2091 7.79086 18 10 18H14C16.2091 18 18 16.2091 18 14V10C18 7.79086 16.2091 6 14 6H10Z" fill="#282828"/>
<path d="M10 22C7.79086 22 6 23.7909 6 26V30C6 32.2091 7.79086 34 10 34H14C16.2091 34 18 32.2091 18 30V26C18 23.7909 16.2091 22 14 22H10Z" fill="#282828"/>
<path d="M22 10C22 7.79086 23.7909 6 26 6H30C32.2091 6 34 7.79086 34 10V14C34 16.2091 32.2091 18 30 18H26C23.7909 18 22 16.2091 22 14V10Z" fill="#282828"/>
<path d="M22 26C22 23.7909 23.7909 22 26 22H30C32.2091 22 34 23.7909 34 26V30C34 32.2091 32.2091 34 30 34H26C23.7909 34 22 32.2091 22 30V26Z" fill="#282828"/>
</svg>
